<svg width="97" height="72" viewBox="0 0 97 72" fill="none" xmlns="http://www.w3.org/2000/svg">
<path d="M57.0722 70.7604C58.7155 72.4132 61.3925 72.4132 63.0359 70.7604L94.6576 38.9559C96.2842 37.32 96.2842 34.6801 94.6576 33.0441L63.0359 1.23961C61.3926 -0.413211 58.7155 -0.413204 57.0722 1.23963L47.9739 10.3906C56.4356 15.7887 62.0448 25.2415 62.0448 36.0004C62.0448 46.7591 56.4359 56.2117 47.9743 61.6099L57.0722 70.7604Z" fill="#5EC5FD"/>
<path fill-rule="evenodd" clip-rule="evenodd" d="M47.9738 10.3544L25.4528 33.0057C23.8258 34.6422 23.8258 37.2855 25.4528 38.9219L47.9742 61.5737C43.2392 64.5946 37.6109 66.3457 31.5724 66.3457C14.743 66.3457 1.09997 52.7435 1.09998 35.9643C1.09998 19.1849 14.743 5.5827 31.5724 5.5827C37.6108 5.5827 43.2389 7.3338 47.9738 10.3544Z" fill="#F24D0D"/>
</svg>
