<svg width="20" height="20" viewBox="0 0 20 20" fill="none" xmlns="http://www.w3.org/2000/svg">
<path fill-rule="evenodd" clip-rule="evenodd" d="M1.87502 9.15549H3.12502V12.911C3.12502 14.1088 3.12634 14.9445 3.21099 15.575C3.29324 16.1876 3.44372 16.5122 3.67453 16.7434C3.9052 16.9744 4.22894 17.1249 4.84024 17.2072C5.46963 17.292 6.30381 17.2933 7.50002 17.2933H12.5C13.6962 17.2933 14.5304 17.292 15.1597 17.2072C15.771 17.1249 16.0948 16.9744 16.3255 16.7434C16.5563 16.5122 16.7068 16.1876 16.789 15.575C16.8737 14.9445 16.875 14.1088 16.875 12.911V9.15549H18.125V12.9567C18.125 14.0981 18.125 15.0179 18.0279 15.7413C17.9271 16.4922 17.7115 17.1244 17.21 17.6266C16.7084 18.1289 16.0768 18.345 15.3266 18.4461C14.604 18.5434 13.6854 18.5433 12.5458 18.5433H7.45423C6.31463 18.5433 5.39597 18.5434 4.67344 18.4461C3.92318 18.345 3.29154 18.1289 2.78998 17.6266C2.28855 17.1244 2.07292 16.4922 1.97211 15.7413C1.87499 15.0179 1.875 14.0981 1.87502 12.9567L1.87502 9.15549Z"/>
<path fill-rule="evenodd" clip-rule="evenodd" d="M5.20835 14.9784C5.20835 14.6332 5.48818 14.3534 5.83335 14.3534H9.16666C9.51184 14.3534 9.79166 14.6332 9.79166 14.9784C9.79166 15.3236 9.51184 15.6034 9.16666 15.6034H5.83335C5.48818 15.6034 5.20835 15.3236 5.20835 14.9784Z"/>
<path fill-rule="evenodd" clip-rule="evenodd" d="M14.8111 1.45878C15.2999 1.43386 16.1511 1.61933 16.7666 2.21757C17.0405 2.48383 17.175 2.80696 17.2497 3.09208C17.3167 3.34726 17.3457 3.61596 17.3684 3.8257C17.3703 3.84338 17.3722 3.86064 17.374 3.87744C17.4496 4.56857 17.6748 5.23029 18.24 5.95429C19.3603 7.38948 19.0129 8.83755 18.2477 9.55366C17.7119 10.0551 16.4023 11.0787 14.8171 10.4253C14.1562 10.153 13.6528 9.7921 13.305 9.27873C13.2686 9.22504 13.2344 9.17038 13.2023 9.11479C13.1433 9.18681 13.0821 9.25698 13.0189 9.325C12.5573 9.82178 11.9501 10.2468 11.2636 10.4372C10.6209 10.6156 9.5964 10.7048 8.5883 10.3597C7.94003 10.1378 7.3142 9.74049 6.81406 9.10403C6.72001 9.26175 6.61189 9.41387 6.48976 9.55697C5.94675 10.1932 5.12169 10.6544 4.04301 10.6299C4.0287 10.6296 4.01441 10.6288 4.00016 10.6275C3.66174 10.5964 3.18965 10.4928 2.73339 10.2827C2.28145 10.0747 1.7805 9.73185 1.48427 9.18445C1.23307 8.72028 1.00222 8.24373 1.05067 7.66037C1.09678 7.10524 1.38732 6.55499 1.83381 5.88297C2.25385 5.25076 2.46122 4.79258 2.56602 4.45697C2.66803 4.13029 2.68002 3.8979 2.68002 3.69407C2.68002 3.30757 2.80518 2.74484 3.18637 2.27487C3.5908 1.77626 4.23689 1.44122 5.1393 1.4829L14.8111 1.45878ZM15.3328 2.78591C15.1217 2.71611 14.9466 2.7024 14.8707 2.70739C14.8576 2.70825 14.8444 2.7087 14.8313 2.70873L5.12644 2.73294C5.11521 2.73297 5.10398 2.73269 5.09276 2.73212C4.55595 2.7045 4.29792 2.88878 4.15717 3.0623C3.99056 3.26772 3.93002 3.53532 3.93002 3.69407C3.93002 3.9779 3.91057 4.34481 3.7592 4.82955C3.61063 5.30536 3.34268 5.87074 2.87496 6.57471C2.43369 7.23888 2.31371 7.55518 2.29638 7.76383C2.2814 7.94424 2.33421 8.12866 2.58361 8.58952C2.70286 8.80987 2.93804 9.00085 3.25611 9.14727C3.55972 9.28704 3.88025 9.3585 4.09328 9.38063C4.75325 9.38949 5.22217 9.11667 5.53897 8.74548C5.87417 8.35274 6.0339 7.85306 6.0339 7.47078C6.0339 7.16338 6.25743 6.90162 6.56103 6.85349C6.86464 6.80536 7.15817 6.98515 7.25325 7.27747C7.62431 8.41836 8.30874 8.94282 8.99312 9.17708C9.71173 9.42306 10.4719 9.35967 10.9294 9.23274C11.3452 9.11739 11.7613 8.84211 12.1031 8.47418C12.4464 8.10476 12.6749 7.68476 12.757 7.32998C12.8257 7.03289 13.0987 6.82873 13.4031 6.84689C13.7075 6.86505 13.9544 7.10022 13.9873 7.40338C14.047 7.95439 14.1607 8.31323 14.3398 8.57763C14.5129 8.83317 14.7892 9.06184 15.2934 9.26964C16.1218 9.6111 16.8879 9.1142 17.3936 8.64098C17.6699 8.38243 17.9909 7.66656 17.2547 6.72346C16.5395 5.8073 16.231 4.92377 16.1315 4.01347L16.1285 3.9863C16.1028 3.75177 16.083 3.57082 16.0406 3.40915C15.9988 3.24968 15.9478 3.16487 15.8953 3.11387C15.7397 2.96261 15.5385 2.85394 15.3328 2.78591Z" />
</svg>
