<svg width="20" height="20" viewBox="0 0 20 20" fill="none" xmlns="http://www.w3.org/2000/svg">
<path fill-rule="evenodd" clip-rule="evenodd" d="M9.9999 1.04169C7.58366 1.04169 5.6249 3.00044 5.6249 5.41669C5.6249 7.83293 7.58366 9.79169 9.9999 9.79169C12.4161 9.79169 14.3749 7.83293 14.3749 5.41669C14.3749 3.00044 12.4161 1.04169 9.9999 1.04169ZM6.8749 5.41669C6.8749 3.6908 8.27401 2.29169 9.9999 2.29169C11.7258 2.29169 13.1249 3.6908 13.1249 5.41669C13.1249 7.14258 11.7258 8.54169 9.9999 8.54169C8.27401 8.54169 6.8749 7.14258 6.8749 5.41669Z"/>
<path fill-rule="evenodd" clip-rule="evenodd" d="M15.1905 12.566C15.0549 12.4896 14.9353 12.422 14.8383 12.3643C11.8766 10.6008 8.12316 10.6008 5.16146 12.3643C5.06453 12.422 4.9448 12.4896 4.80924 12.5661C4.21523 12.9012 3.31731 13.4078 2.70217 14.0099C2.31745 14.3865 1.9519 14.8827 1.88545 15.4906C1.81477 16.1372 2.09683 16.7439 2.66268 17.283C3.63888 18.213 4.81037 18.9584 6.32563 18.9584H13.6742C15.1894 18.9584 16.3609 18.213 17.3371 17.283C17.903 16.7439 18.185 16.1372 18.1144 15.4906C18.0479 14.8827 17.6824 14.3865 17.2976 14.0099C16.6825 13.4078 15.7845 12.9011 15.1905 12.566ZM5.80097 13.4384C8.36862 11.9095 11.6312 11.9095 14.1988 13.4383C14.3387 13.5217 14.492 13.6086 14.6526 13.6997C15.2465 14.0366 15.9399 14.43 16.4233 14.9032C16.7234 15.1969 16.8513 15.4392 16.8718 15.6265C16.888 15.7751 16.8504 16.0202 16.4749 16.378C15.6117 17.2004 14.7346 17.7084 13.6742 17.7084H6.32563C5.26525 17.7084 4.38811 17.2004 3.5249 16.378C3.14937 16.0202 3.1118 15.7751 3.12804 15.6265C3.14851 15.4392 3.27644 15.1969 3.57654 14.9032C4.05995 14.43 4.7533 14.0367 5.34714 13.6998C5.5077 13.6087 5.66109 13.5216 5.80097 13.4384Z"/>
</svg>
